<?xml version="1.0"?>
<svg xmlns="http://www.w3.org/2000/svg" xmlns:xlink="http://www.w3.org/1999/xlink" xmlns:svgjs="http://svgjs.com/svgjs" version="1.1" width="512" height="512" x="0" y="0" viewBox="0 0 74 74" style="enable-background:new 0 0 512 512" xml:space="preserve" class=""><g><path xmlns="http://www.w3.org/2000/svg" d="M62.444,65.818H11.556a1,1,0,0,1-1-1V43.009a1,1,0,0,1,2,0V63.818H61.444V43.009a1,1,0,0,1,2,0V64.818A1,1,0,0,1,62.444,65.818Z" fill="#3a444a" data-original="#000000" style=""/><path xmlns="http://www.w3.org/2000/svg" d="M40.181,29.47a1,1,0,0,1-1-1V15.894H34.819V28.47a1,1,0,0,1-2,0V15.8a1.911,1.911,0,0,1,1.909-1.909h4.543A1.911,1.911,0,0,1,41.181,15.8V28.47A1,1,0,0,1,40.181,29.47Z" fill="#3a444a" data-original="#000000" style=""/><path xmlns="http://www.w3.org/2000/svg" d="M37,13.113a3.668,3.668,0,0,1-3.664-3.664c0-1.6,2.129-5.723,2.781-6.95a1.041,1.041,0,0,1,1.766,0c.652,1.227,2.781,5.354,2.781,6.95A3.668,3.668,0,0,1,37,13.113Zm0-7.935a17.676,17.676,0,0,0-1.664,4.271,1.664,1.664,0,0,0,3.328,0A17.676,17.676,0,0,0,37,5.178Z" fill="#3a444a" data-original="#000000" style=""/><path xmlns="http://www.w3.org/2000/svg" d="M37,15.9a1,1,0,0,1-1-1V12.113a1,1,0,0,1,2,0V14.9A1,1,0,0,1,37,15.9Z" fill="#3a444a" data-original="#000000" style=""/><path xmlns="http://www.w3.org/2000/svg" d="M46.7,44.009a8.114,8.114,0,0,1-5.446-2.018,6.381,6.381,0,0,0-8.492,0,8.362,8.362,0,0,1-10.895,0,6.389,6.389,0,0,0-8.5,0,9.518,9.518,0,0,1-2.944,1.661,2.716,2.716,0,0,1-2.414-.4A2.644,2.644,0,0,1,6.921,41.1V33.013a5.55,5.55,0,0,1,5.544-5.543h49.07a5.55,5.55,0,0,1,5.544,5.543V41.1a2.645,2.645,0,0,1-1.091,2.153,2.684,2.684,0,0,1-2.413.4,9.506,9.506,0,0,1-2.94-1.66,6.378,6.378,0,0,0-8.488,0A8.114,8.114,0,0,1,46.7,44.009Zm-9.693-5.635a8.114,8.114,0,0,1,5.446,2.018,6.383,6.383,0,0,0,8.493,0,8.354,8.354,0,0,1,10.889,0,7.678,7.678,0,0,0,2.341,1.352.7.7,0,0,0,.629-.1.656.656,0,0,0,.274-.541V33.013a3.548,3.548,0,0,0-3.544-3.543H12.465a3.548,3.548,0,0,0-3.544,3.543V41.1a.659.659,0,0,0,.273.54.7.7,0,0,0,.631.1,7.679,7.679,0,0,0,2.345-1.353,8.117,8.117,0,0,1,5.448-2.018,8.117,8.117,0,0,1,5.448,2.018,6.384,6.384,0,0,0,8.494,0A8.116,8.116,0,0,1,37.007,38.374Z" fill="#3a444a" data-original="#000000" style=""/><path xmlns="http://www.w3.org/2000/svg" d="M62.444,56.277a8.7,8.7,0,0,1-5.672-2,7.049,7.049,0,0,0-9.02,0,9.024,9.024,0,0,1-11.34,0,7.042,7.042,0,0,0-9.014,0,8.7,8.7,0,0,1-5.67,2,8.688,8.688,0,0,1-5.668-2,6.743,6.743,0,0,0-4.506-1.631,1,1,0,1,1,0-2,8.688,8.688,0,0,1,5.668,2,7.042,7.042,0,0,0,9.014,0,9.022,9.022,0,0,1,11.338,0,7.045,7.045,0,0,0,9.016,0,9.03,9.03,0,0,1,11.344,0,6.747,6.747,0,0,0,4.51,1.631,1,1,0,0,1,0,2Z" fill="#3a444a" data-original="#000000" style=""/><path xmlns="http://www.w3.org/2000/svg" d="M66.878,72H7.122a1,1,0,0,1-1-1V66.879a3.064,3.064,0,0,1,3.061-3.061H64.817a3.064,3.064,0,0,1,3.061,3.061V71A1,1,0,0,1,66.878,72ZM8.122,70H65.878V66.879a1.062,1.062,0,0,0-1.061-1.061H9.183a1.062,1.062,0,0,0-1.061,1.061Z" fill="#3a444a" data-original="#000000" style=""/></g></svg>
