<?xml version="1.0"?>
<svg xmlns="http://www.w3.org/2000/svg" xmlns:xlink="http://www.w3.org/1999/xlink" xmlns:svgjs="http://svgjs.com/svgjs" version="1.1" width="512" height="512" x="0" y="0" viewBox="0 0 512 512" style="enable-background:new 0 0 512 512" xml:space="preserve" class=""><g>
<g xmlns="http://www.w3.org/2000/svg">
	<g>
		<g>
			<polygon points="466.344,409.376 466.344,102.624 487.032,123.312 509.656,100.688 450.344,41.376 391.032,100.688      413.656,123.312 434.344,102.624 434.344,409.376 413.656,388.688 391.032,411.312 450.344,470.624 509.656,411.312      487.032,388.688    " fill="#3a444a" data-original="#000000" style="" class=""/>
			<rect x="2.344" width="224" height="32" fill="#3a444a" data-original="#000000" style="" class=""/>
			<rect x="98.344" y="96" width="256" height="32" fill="#3a444a" data-original="#000000" style="" class=""/>
			<rect x="2.344" y="192" width="352" height="32" fill="#3a444a" data-original="#000000" style="" class=""/>
			<rect x="2.344" y="384" width="352" height="32" fill="#3a444a" data-original="#000000" style="" class=""/>
			<rect x="98.344" y="288" width="256" height="32" fill="#3a444a" data-original="#000000" style="" class=""/>
			<rect x="98.344" y="480" width="256" height="32" fill="#3a444a" data-original="#000000" style="" class=""/>
			<rect x="322.344" width="32" height="32" fill="#3a444a" data-original="#000000" style="" class=""/>
			<rect x="258.344" width="32" height="32" fill="#3a444a" data-original="#000000" style="" class=""/>
		</g>
	</g>
</g>
<g xmlns="http://www.w3.org/2000/svg">
</g>
<g xmlns="http://www.w3.org/2000/svg">
</g>
<g xmlns="http://www.w3.org/2000/svg">
</g>
<g xmlns="http://www.w3.org/2000/svg">
</g>
<g xmlns="http://www.w3.org/2000/svg">
</g>
<g xmlns="http://www.w3.org/2000/svg">
</g>
<g xmlns="http://www.w3.org/2000/svg">
</g>
<g xmlns="http://www.w3.org/2000/svg">
</g>
<g xmlns="http://www.w3.org/2000/svg">
</g>
<g xmlns="http://www.w3.org/2000/svg">
</g>
<g xmlns="http://www.w3.org/2000/svg">
</g>
<g xmlns="http://www.w3.org/2000/svg">
</g>
<g xmlns="http://www.w3.org/2000/svg">
</g>
<g xmlns="http://www.w3.org/2000/svg">
</g>
<g xmlns="http://www.w3.org/2000/svg">
</g>
</g></svg>
